<mxfile host="65bd71144e">
    <diagram id="RbjUUOYICH1Ze_sOwGuW" name="Page-1">
        <mxGraphModel dx="1081" dy="540" grid="1" gridSize="10" guides="1" tooltips="1" connect="1" arrows="1" fold="1" page="1" pageScale="1" pageWidth="850" pageHeight="1100" math="0" shadow="0">
            <root>
                <mxCell id="0"/>
                <mxCell id="1" parent="0"/>
                <mxCell id="16" style="edgeStyle=none;html=1;" parent="1" source="2" target="6" edge="1">
                    <mxGeometry relative="1" as="geometry"/>
                </mxCell>
                <mxCell id="17" style="edgeStyle=none;html=1;" parent="1" source="2" target="7" edge="1">
                    <mxGeometry relative="1" as="geometry"/>
                </mxCell>
                <mxCell id="18" style="edgeStyle=none;html=1;" parent="1" source="2" target="8" edge="1">
                    <mxGeometry relative="1" as="geometry"/>
                </mxCell>
                <mxCell id="19" style="edgeStyle=none;html=1;" parent="1" source="2" target="9" edge="1">
                    <mxGeometry relative="1" as="geometry"/>
                </mxCell>
                <mxCell id="2" value="Common" style="ellipse;whiteSpace=wrap;html=1;fillColor=#6a00ff;fontColor=#ffffff;strokeColor=#3700CC;" parent="1" vertex="1">
                    <mxGeometry x="365" y="40" width="120" height="80" as="geometry"/>
                </mxCell>
                <mxCell id="30" style="edgeStyle=none;html=1;" parent="1" source="3" target="22" edge="1">
                    <mxGeometry relative="1" as="geometry"/>
                </mxCell>
                <mxCell id="31" style="edgeStyle=none;html=1;fillColor=#0050ef;strokeColor=#001DBC;" parent="1" source="3" target="23" edge="1">
                    <mxGeometry relative="1" as="geometry"/>
                </mxCell>
                <mxCell id="3" value="Web-Server" style="ellipse;whiteSpace=wrap;html=1;fillColor=#0050ef;fontColor=#ffffff;strokeColor=#001DBC;" parent="1" vertex="1">
                    <mxGeometry x="106.85" y="350" width="120" height="80" as="geometry"/>
                </mxCell>
                <mxCell id="44" style="edgeStyle=none;html=1;" parent="1" source="4" target="34" edge="1">
                    <mxGeometry relative="1" as="geometry"/>
                </mxCell>
                <mxCell id="45" style="edgeStyle=none;html=1;fillColor=#a20025;strokeColor=#6F0000;" parent="1" source="4" target="35" edge="1">
                    <mxGeometry relative="1" as="geometry">
                        <Array as="points">
                            <mxPoint x="620" y="330"/>
                        </Array>
                    </mxGeometry>
                </mxCell>
                <mxCell id="4" value="Microservices" style="ellipse;whiteSpace=wrap;html=1;fillColor=#60a917;fontColor=#ffffff;strokeColor=#2D7600;" parent="1" vertex="1">
                    <mxGeometry x="560" y="245" width="120" height="80" as="geometry"/>
                </mxCell>
                <mxCell id="6" value="Adapters" style="rounded=0;whiteSpace=wrap;html=1;" parent="1" vertex="1">
                    <mxGeometry x="186.85" y="40" width="60" height="30" as="geometry"/>
                </mxCell>
                <mxCell id="7" value="Models" style="rounded=0;whiteSpace=wrap;html=1;" parent="1" vertex="1">
                    <mxGeometry x="210" y="100" width="60" height="30" as="geometry"/>
                </mxCell>
                <mxCell id="8" value="Modules" style="rounded=0;whiteSpace=wrap;html=1;" parent="1" vertex="1">
                    <mxGeometry x="295" y="160" width="60" height="30" as="geometry"/>
                </mxCell>
                <mxCell id="115" style="edgeStyle=none;html=1;fillColor=#a20025;strokeColor=#6F0000;" parent="1" source="9" target="4" edge="1">
                    <mxGeometry relative="1" as="geometry"/>
                </mxCell>
                <mxCell id="9" value="Topics" style="rounded=0;whiteSpace=wrap;html=1;" parent="1" vertex="1">
                    <mxGeometry x="410" y="180" width="60" height="30" as="geometry"/>
                </mxCell>
                <mxCell id="33" style="edgeStyle=none;html=1;fillColor=#0050ef;strokeColor=#001DBC;" parent="1" source="22" target="32" edge="1">
                    <mxGeometry relative="1" as="geometry"/>
                </mxCell>
                <mxCell id="127" style="edgeStyle=none;html=1;fillColor=#e3c800;strokeColor=#B09500;" parent="1" source="22" target="38" edge="1">
                    <mxGeometry relative="1" as="geometry">
                        <Array as="points">
                            <mxPoint x="240" y="580"/>
                        </Array>
                    </mxGeometry>
                </mxCell>
                <mxCell id="128" style="edgeStyle=none;html=1;fillColor=#e3c800;strokeColor=#B09500;" parent="1" source="22" target="37" edge="1">
                    <mxGeometry relative="1" as="geometry">
                        <Array as="points">
                            <mxPoint x="220" y="650"/>
                        </Array>
                    </mxGeometry>
                </mxCell>
                <mxCell id="22" value="Common" style="rounded=0;whiteSpace=wrap;html=1;" parent="1" vertex="1">
                    <mxGeometry x="186.85" y="467.5" width="60" height="30" as="geometry"/>
                </mxCell>
                <mxCell id="26" style="edgeStyle=none;html=1;fillColor=#0050ef;strokeColor=#001DBC;" parent="1" source="23" target="24" edge="1">
                    <mxGeometry relative="1" as="geometry"/>
                </mxCell>
                <mxCell id="27" style="edgeStyle=none;html=1;fillColor=#0050ef;strokeColor=#001DBC;" parent="1" source="23" target="25" edge="1">
                    <mxGeometry relative="1" as="geometry"/>
                </mxCell>
                <mxCell id="23" value="Modules" style="rounded=0;whiteSpace=wrap;html=1;" parent="1" vertex="1">
                    <mxGeometry x="71.85" y="437.5" width="60" height="30" as="geometry"/>
                </mxCell>
                <mxCell id="41" style="edgeStyle=none;html=1;fillColor=#0050ef;strokeColor=#001DBC;" parent="1" source="24" target="37" edge="1">
                    <mxGeometry relative="1" as="geometry"/>
                </mxCell>
                <mxCell id="24" value="auth" style="rounded=0;whiteSpace=wrap;html=1;" parent="1" vertex="1">
                    <mxGeometry x="11.850000000000001" y="507.5" width="60" height="30" as="geometry"/>
                </mxCell>
                <mxCell id="40" style="edgeStyle=none;html=1;fillColor=#0050ef;strokeColor=#001DBC;" parent="1" source="25" target="38" edge="1">
                    <mxGeometry relative="1" as="geometry"/>
                </mxCell>
                <mxCell id="25" value="tracks" style="rounded=0;whiteSpace=wrap;html=1;" parent="1" vertex="1">
                    <mxGeometry x="106.85" y="507.5" width="60" height="30" as="geometry"/>
                </mxCell>
                <mxCell id="111" style="edgeStyle=none;html=1;fillColor=#0050ef;strokeColor=#001DBC;" parent="1" source="32" target="46" edge="1">
                    <mxGeometry relative="1" as="geometry"/>
                </mxCell>
                <mxCell id="126" style="edgeStyle=none;html=1;fillColor=#e3c800;strokeColor=#B09500;" parent="1" source="32" target="22" edge="1">
                    <mxGeometry relative="1" as="geometry">
                        <Array as="points">
                            <mxPoint x="290" y="480"/>
                        </Array>
                    </mxGeometry>
                </mxCell>
                <mxCell id="32" value="Adapters" style="rounded=0;whiteSpace=wrap;html=1;" parent="1" vertex="1">
                    <mxGeometry x="236.85" y="415" width="60" height="30" as="geometry"/>
                </mxCell>
                <mxCell id="43" style="edgeStyle=none;html=1;" parent="1" source="34" target="42" edge="1">
                    <mxGeometry relative="1" as="geometry"/>
                </mxCell>
                <mxCell id="34" value="Common" style="rounded=0;whiteSpace=wrap;html=1;" parent="1" vertex="1">
                    <mxGeometry x="710" y="325" width="60" height="30" as="geometry"/>
                </mxCell>
                <mxCell id="54" style="edgeStyle=none;html=1;fillColor=#a20025;strokeColor=#6F0000;" parent="1" source="35" target="52" edge="1">
                    <mxGeometry relative="1" as="geometry"/>
                </mxCell>
                <mxCell id="55" style="edgeStyle=none;html=1;fillColor=#a20025;strokeColor=#6F0000;" parent="1" source="35" target="53" edge="1">
                    <mxGeometry relative="1" as="geometry"/>
                </mxCell>
                <mxCell id="35" value="Services" style="rounded=0;whiteSpace=wrap;html=1;" parent="1" vertex="1">
                    <mxGeometry x="590" y="340" width="60" height="30" as="geometry"/>
                </mxCell>
                <mxCell id="113" style="edgeStyle=none;html=1;fillColor=#0050ef;strokeColor=#001DBC;" parent="1" source="37" target="22" edge="1">
                    <mxGeometry relative="1" as="geometry">
                        <Array as="points">
                            <mxPoint x="170" y="650"/>
                        </Array>
                    </mxGeometry>
                </mxCell>
                <mxCell id="129" style="edgeStyle=none;html=1;fillColor=#e3c800;strokeColor=#B09500;" parent="1" source="37" target="3" edge="1">
                    <mxGeometry relative="1" as="geometry">
                        <Array as="points">
                            <mxPoint x="20" y="450"/>
                        </Array>
                    </mxGeometry>
                </mxCell>
                <mxCell id="37" value="Controller" style="ellipse;whiteSpace=wrap;html=1;aspect=fixed;" parent="1" vertex="1">
                    <mxGeometry x="11.850000000000001" y="567.5" width="60" height="60" as="geometry"/>
                </mxCell>
                <mxCell id="112" style="edgeStyle=none;html=1;fillColor=#0050ef;strokeColor=#001DBC;" parent="1" source="38" target="22" edge="1">
                    <mxGeometry relative="1" as="geometry"/>
                </mxCell>
                <mxCell id="130" style="edgeStyle=none;html=1;fillColor=#e3c800;strokeColor=#B09500;" parent="1" source="38" target="3" edge="1">
                    <mxGeometry relative="1" as="geometry">
                        <Array as="points">
                            <mxPoint x="180" y="520"/>
                        </Array>
                    </mxGeometry>
                </mxCell>
                <mxCell id="38" value="Controller" style="ellipse;whiteSpace=wrap;html=1;aspect=fixed;" parent="1" vertex="1">
                    <mxGeometry x="106.85" y="567.5" width="60" height="60" as="geometry"/>
                </mxCell>
                <mxCell id="123" style="edgeStyle=none;html=1;" parent="1" source="42" target="118" edge="1">
                    <mxGeometry relative="1" as="geometry"/>
                </mxCell>
                <mxCell id="42" value="Adapters" style="rounded=0;whiteSpace=wrap;html=1;" parent="1" vertex="1">
                    <mxGeometry x="730" y="385" width="60" height="30" as="geometry"/>
                </mxCell>
                <mxCell id="114" style="edgeStyle=none;html=1;fillColor=#0050ef;strokeColor=#001DBC;" parent="1" source="46" target="9" edge="1">
                    <mxGeometry relative="1" as="geometry"/>
                </mxCell>
                <mxCell id="125" style="edgeStyle=none;html=1;fillColor=#e3c800;strokeColor=#B09500;" parent="1" source="46" target="32" edge="1">
                    <mxGeometry relative="1" as="geometry">
                        <Array as="points">
                            <mxPoint x="340" y="440"/>
                        </Array>
                    </mxGeometry>
                </mxCell>
                <mxCell id="46" value="Kafka&lt;div&gt;web&lt;/div&gt;" style="rhombus;whiteSpace=wrap;html=1;" parent="1" vertex="1">
                    <mxGeometry x="297.5" y="350" width="55" height="55" as="geometry"/>
                </mxCell>
                <mxCell id="60" style="edgeStyle=none;html=1;fillColor=#a20025;strokeColor=#6F0000;" parent="1" source="52" target="56" edge="1">
                    <mxGeometry relative="1" as="geometry"/>
                </mxCell>
                <mxCell id="52" value="auth" style="rounded=0;whiteSpace=wrap;html=1;" parent="1" vertex="1">
                    <mxGeometry x="530" y="400" width="60" height="30" as="geometry"/>
                </mxCell>
                <mxCell id="97" value="" style="edgeStyle=none;html=1;" parent="1" source="53" target="94" edge="1">
                    <mxGeometry relative="1" as="geometry"/>
                </mxCell>
                <mxCell id="99" value="" style="edgeStyle=none;html=1;" parent="1" source="53" target="95" edge="1">
                    <mxGeometry relative="1" as="geometry"/>
                </mxCell>
                <mxCell id="53" value="tracks" style="rounded=0;whiteSpace=wrap;html=1;" parent="1" vertex="1">
                    <mxGeometry x="640" y="385" width="60" height="30" as="geometry"/>
                </mxCell>
                <mxCell id="61" style="edgeStyle=none;html=1;fillColor=#a20025;strokeColor=#6F0000;" parent="1" source="56" target="57" edge="1">
                    <mxGeometry relative="1" as="geometry"/>
                </mxCell>
                <mxCell id="56" value="modules" style="rounded=0;whiteSpace=wrap;html=1;" parent="1" vertex="1">
                    <mxGeometry x="540" y="452.5" width="60" height="30" as="geometry"/>
                </mxCell>
                <mxCell id="72" style="edgeStyle=none;html=1;entryX=0.5;entryY=0;entryDx=0;entryDy=0;fillColor=#a20025;strokeColor=#6F0000;" parent="1" source="57" target="67" edge="1">
                    <mxGeometry relative="1" as="geometry"/>
                </mxCell>
                <mxCell id="73" style="edgeStyle=none;html=1;" parent="1" source="57" target="66" edge="1">
                    <mxGeometry relative="1" as="geometry"/>
                </mxCell>
                <mxCell id="57" value="registration" style="rounded=0;whiteSpace=wrap;html=1;" parent="1" vertex="1">
                    <mxGeometry x="494" y="507.5" width="60" height="30" as="geometry"/>
                </mxCell>
                <mxCell id="83" style="edgeStyle=none;html=1;entryX=1;entryY=0.5;entryDx=0;entryDy=0;" parent="1" source="66" target="67" edge="1">
                    <mxGeometry relative="1" as="geometry"/>
                </mxCell>
                <mxCell id="66" value="repository" style="rounded=0;whiteSpace=wrap;html=1;" parent="1" vertex="1">
                    <mxGeometry x="510" y="572.5" width="50" height="30" as="geometry"/>
                </mxCell>
                <mxCell id="122" style="edgeStyle=none;html=1;fillColor=#a20025;strokeColor=#6F0000;" parent="1" source="67" target="118" edge="1">
                    <mxGeometry relative="1" as="geometry">
                        <Array as="points">
                            <mxPoint x="590" y="670"/>
                        </Array>
                    </mxGeometry>
                </mxCell>
                <mxCell id="67" value="service" style="rounded=0;whiteSpace=wrap;html=1;" parent="1" vertex="1">
                    <mxGeometry x="444" y="572.5" width="40" height="30" as="geometry"/>
                </mxCell>
                <mxCell id="119" style="edgeStyle=none;html=1;fillColor=#a20025;strokeColor=#6F0000;" parent="1" source="92" target="118" edge="1">
                    <mxGeometry relative="1" as="geometry">
                        <Array as="points">
                            <mxPoint x="730" y="560"/>
                        </Array>
                    </mxGeometry>
                </mxCell>
                <mxCell id="92" value="service" style="rounded=0;whiteSpace=wrap;html=1;" parent="1" vertex="1">
                    <mxGeometry x="610" y="437.5" width="40" height="30" as="geometry"/>
                </mxCell>
                <mxCell id="117" style="edgeStyle=none;html=1;" parent="1" source="94" target="92" edge="1">
                    <mxGeometry relative="1" as="geometry"/>
                </mxCell>
                <mxCell id="94" value="repo" style="rounded=0;whiteSpace=wrap;html=1;" parent="1" vertex="1">
                    <mxGeometry x="664" y="437.5" width="40" height="30" as="geometry"/>
                </mxCell>
                <mxCell id="116" style="edgeStyle=none;html=1;" parent="1" source="95" target="92" edge="1">
                    <mxGeometry relative="1" as="geometry">
                        <Array as="points">
                            <mxPoint x="710" y="520"/>
                        </Array>
                    </mxGeometry>
                </mxCell>
                <mxCell id="95" value="elastic" style="rounded=0;whiteSpace=wrap;html=1;" parent="1" vertex="1">
                    <mxGeometry x="710" y="437.5" width="40" height="30" as="geometry"/>
                </mxCell>
                <mxCell id="96" style="edgeStyle=none;html=1;entryX=0.597;entryY=-0.004;entryDx=0;entryDy=0;entryPerimeter=0;fillColor=#a20025;strokeColor=#6F0000;" parent="1" source="53" target="92" edge="1">
                    <mxGeometry relative="1" as="geometry"/>
                </mxCell>
                <mxCell id="124" style="edgeStyle=none;html=1;fillColor=#a20025;strokeColor=#6F0000;" parent="1" source="118" target="9" edge="1">
                    <mxGeometry relative="1" as="geometry">
                        <Array as="points">
                            <mxPoint x="730" y="210"/>
                        </Array>
                    </mxGeometry>
                </mxCell>
                <mxCell id="118" value="Kafka&lt;div&gt;micro&lt;/div&gt;" style="rhombus;whiteSpace=wrap;html=1;" parent="1" vertex="1">
                    <mxGeometry x="795" y="412.5" width="55" height="55" as="geometry"/>
                </mxCell>
                <mxCell id="134" value="Общие константы, типы" style="rounded=0;whiteSpace=wrap;html=1;" parent="1" vertex="1">
                    <mxGeometry x="231.85" y="160" width="63.15" height="50" as="geometry"/>
                </mxCell>
                <mxCell id="135" value="Общие адаптеры" style="rounded=0;whiteSpace=wrap;html=1;" parent="1" vertex="1">
                    <mxGeometry x="123.69999999999999" y="20" width="63.15" height="50" as="geometry"/>
                </mxCell>
                <mxCell id="136" value="Общие zod схемы, enum" style="rounded=0;whiteSpace=wrap;html=1;" parent="1" vertex="1">
                    <mxGeometry x="140" y="100" width="70" height="50" as="geometry"/>
                </mxCell>
                <mxCell id="137" value="KafkaAdapter - упрощённый интерфейс работы с kafka" style="rounded=0;whiteSpace=wrap;html=1;" vertex="1" parent="1">
                    <mxGeometry x="570" y="40" width="120" height="60" as="geometry"/>
                </mxCell>
                <mxCell id="138" value="KafkaLoader - свой у микро и веба" style="rounded=0;whiteSpace=wrap;html=1;" vertex="1" parent="1">
                    <mxGeometry x="570" y="110" width="120" height="60" as="geometry"/>
                </mxCell>
            </root>
        </mxGraphModel>
    </diagram>
</mxfile>